<svg id="Capa_1" enable-background="new 0 0 512.003 512.003" height="512" viewBox="0 0 512.003 512.003" width="512" xmlns="http://www.w3.org/2000/svg">
<path fill="white" d="m422.265 215.907c-9.2-9.209-22.106-16.966-38.361-23.054-3.879-1.452-8.201.513-9.654 4.393-1.453 3.879.514 8.201 4.393 9.654 14.232 5.331 25.338 11.928 33.011 19.609 16.283 16.299 17.609 42.266 2.957 57.885-5.852 6.237-13.354 10.38-21.694 11.981-12.242 2.349-22.046 12.153-24.396 24.395-1.601 8.341-5.744 15.843-11.981 21.695-15.619 14.651-41.586 13.326-57.884-2.957-27.59-27.561-33.886-90.12-35.111-126.877.118-3.762.181-7.247.21-10.417l88.113 88.113c1.464 1.465 3.384 2.197 5.303 2.197s3.839-.732 5.303-2.197c2.929-2.929 2.929-7.677 0-10.606l-88.113-88.113c35.865-.326 113.364-5.225 147.905-39.802 10.451-10.462 16.666-24.246 17.498-38.815.861-15.063-4.187-29.245-14.214-39.934-8.031-8.56-18.338-14.249-29.807-16.449-6.269-1.203-11.288-6.223-12.491-12.492-2.202-11.469-7.89-21.776-16.45-29.806-10.69-10.028-24.878-15.078-39.935-14.215-14.569.833-28.353 7.048-38.815 17.499-16.598 16.581-26.353 43.063-32.051 70.086-5.698-27.023-15.453-53.505-32.051-70.086-10.461-10.452-24.245-16.666-38.814-17.499-15.064-.859-29.245 4.187-39.934 14.215-8.56 8.03-14.248 18.337-16.45 29.807-1.203 6.268-6.223 11.288-12.491 12.491-11.469 2.201-21.775 7.889-29.807 16.45-10.027 10.688-15.075 24.87-14.214 39.933.833 14.568 7.047 28.353 17.498 38.815 9.191 9.2 22.082 16.95 38.313 23.037 3.877 1.454 8.201-.511 9.655-4.39 1.455-3.878-.511-8.201-4.39-9.656-14.21-5.328-25.302-11.92-32.967-19.592-16.283-16.299-17.609-42.266-2.957-57.885 5.852-6.238 13.354-10.38 21.694-11.981 12.242-2.35 22.046-12.153 24.396-24.395 1.601-8.342 5.744-15.843 11.981-21.695 15.618-14.653 41.585-13.327 57.884 2.957 27.59 27.561 33.886 90.12 35.111 126.877-.118 3.762-.181 7.246-.21 10.416l-88.113-88.113c-2.929-2.929-7.678-2.929-10.606 0-2.929 2.929-2.929 7.677 0 10.606l88.113 88.113c-35.863.326-113.363 5.223-147.906 39.802-10.451 10.462-16.666 24.246-17.498 38.815-.861 15.063 4.187 29.245 14.214 39.934 8.031 8.56 18.337 14.248 29.807 16.449 6.269 1.203 11.288 6.223 12.491 12.491 2.202 11.469 7.89 21.777 16.45 29.807 9.906 9.293 22.81 14.309 36.637 14.309 1.093 0 2.193-.031 3.296-.094 14.569-.833 28.354-7.047 38.815-17.498 9.339-9.329 16.507-21.799 22.01-35.73-2.628 41.154-7.703 85.579-17.041 126.148-9.673 42.027-19.467 60.16-19.556 60.321-2.012 3.621-.707 8.187 2.914 10.198 1.153.641 2.403.945 3.635.945 2.636 0 5.192-1.392 6.563-3.859 1.462-2.632 31.622-58.687 39.271-205.917 5.899 18.777 14.317 35.918 26.304 47.893 10.461 10.451 24.246 16.666 38.815 17.499 1.104.063 2.203.094 3.297.094 13.826 0 26.731-5.016 36.637-14.309 8.56-8.03 14.248-18.337 16.45-29.807 1.203-6.268 6.223-11.288 12.491-12.491 11.469-2.201 21.776-7.889 29.807-16.449 10.027-10.689 15.076-24.871 14.214-39.934-.829-14.568-7.043-28.353-17.494-38.815zm-156.25-95.584c4.996-43.924 16.282-75.778 32.639-92.118 16.298-16.283 42.265-17.609 57.884-2.957 6.237 5.851 10.38 13.353 11.981 21.694 2.35 12.242 12.153 22.046 24.396 24.396 8.341 1.601 15.842 5.743 21.694 11.981 14.652 15.619 13.326 41.586-2.957 57.885-30.52 30.551-103.951 34.991-137.742 35.349l88.562-88.562c2.929-2.929 2.929-7.677 0-10.606s-7.678-2.929-10.606 0l-88.113 88.113c-.03-3.258-.096-6.851-.22-10.733.336-10.003 1.053-21.885 2.482-34.442zm-52.666 219.184c-16.299 16.283-42.266 17.608-57.884 2.957-6.237-5.851-10.38-13.353-11.981-21.695-2.35-12.242-12.154-22.046-24.396-24.395-8.341-1.601-15.843-5.744-21.694-11.981-14.652-15.619-13.326-41.586 2.957-57.885 30.52-30.552 103.951-34.992 137.742-35.35l-88.562 88.562c-2.929 2.929-2.929 7.678 0 10.606 1.464 1.465 3.384 2.197 5.303 2.197s3.839-.732 5.303-2.197l88.113-88.113c.03 3.258.096 6.851.22 10.733-.337 10.003-1.054 21.886-2.482 34.442-4.995 43.925-16.282 75.779-32.639 92.119z"/></svg>